<svg width="44" height="27" viewBox="0 0 44 27" fill="none" xmlns="http://www.w3.org/2000/svg">
<mask id="path-1-outside-1_738_307" maskUnits="userSpaceOnUse" x="-0.0288086" y="0" width="44" height="27" fill="black">
<rect fill="white" x="-0.0288086" width="44" height="27"/>
<path d="M21.9712 2C30.5555 2 37.5597 4.95776 37.9526 8.6709L40.1675 14.0488C40.5607 14.6337 40.817 15.2445 40.9194 15.875L40.9712 16H40.938C40.9594 16.1655 40.9712 16.3321 40.9712 16.5C40.9712 21.1944 32.4646 25 21.9712 25C11.4778 25 2.97119 21.1944 2.97119 16.5C2.97119 16.3321 2.98293 16.1655 3.00439 16H2.97119L3.02197 15.875C3.12439 15.2446 3.38084 14.6336 3.77393 14.0488L5.98877 8.6709C6.3816 4.95771 13.3868 2 21.9712 2Z"/>
</mask>
<path d="M21.9712 2C30.5555 2 37.5597 4.95776 37.9526 8.6709L40.1675 14.0488C40.5607 14.6337 40.817 15.2445 40.9194 15.875L40.9712 16H40.938C40.9594 16.1655 40.9712 16.3321 40.9712 16.5C40.9712 21.1944 32.4646 25 21.9712 25C11.4778 25 2.97119 21.1944 2.97119 16.5C2.97119 16.3321 2.98293 16.1655 3.00439 16H2.97119L3.02197 15.875C3.12439 15.2446 3.38084 14.6336 3.77393 14.0488L5.98877 8.6709C6.3816 4.95771 13.3868 2 21.9712 2Z" fill="#3EFE51" fill-opacity="0.35"/>
<path d="M37.9526 8.6709L35.9637 8.88138L35.994 9.16697L36.1033 9.43252L37.9526 8.6709ZM40.1675 14.0488L38.3182 14.8104L38.3951 14.9971L38.5077 15.1647L40.1675 14.0488ZM40.9194 15.875L38.9453 16.1958L38.9826 16.4253L39.0716 16.6401L40.9194 15.875ZM40.9712 16V18H43.964L42.819 15.2349L40.9712 16ZM40.938 16V14H38.6619L38.9546 16.2572L40.938 16ZM3.00439 16L4.98778 16.2572L5.28053 14H3.00439V16ZM2.97119 16L1.11826 15.2472L-4.81606e-05 18H2.97119V16ZM3.02197 15.875L4.87491 16.6278L4.95989 16.4186L4.99609 16.1957L3.02197 15.875ZM3.77393 14.0488L5.43379 15.1646L5.54638 14.9971L5.62323 14.8104L3.77393 14.0488ZM5.98877 8.6709L7.83808 9.43252L7.94745 9.16694L7.97767 8.88131L5.98877 8.6709ZM21.9712 2V4C26.0579 4 29.6822 4.70748 32.2609 5.78771C33.5522 6.3286 34.5041 6.93069 35.1233 7.51576C35.7415 8.09993 35.9306 8.56838 35.9637 8.88138L37.9526 8.6709L39.9415 8.46042C39.7782 6.91685 38.9444 5.62316 37.8706 4.60843C36.7977 3.5946 35.3884 2.76102 33.8064 2.09833C30.6387 0.771398 26.4688 0 21.9712 0V2ZM37.9526 8.6709L36.1033 9.43252L38.3182 14.8104L40.1675 14.0488L42.0168 13.2872L39.8019 7.90928L37.9526 8.6709ZM40.1675 14.0488L38.5077 15.1647C38.765 15.5474 38.8958 15.8909 38.9453 16.1958L40.9194 15.875L42.8935 15.5542C42.7382 14.5981 42.3564 13.7201 41.8272 12.9329L40.1675 14.0488ZM40.9194 15.875L39.0716 16.6401L39.1233 16.7651L40.9712 16L42.819 15.2349L42.7673 15.1099L40.9194 15.875ZM40.9712 16V14H40.938V16V18H40.9712V16ZM40.938 16L38.9546 16.2572C38.966 16.3451 38.9712 16.4255 38.9712 16.5H40.9712H42.9712C42.9712 16.2387 42.9529 15.9859 42.9214 15.7428L40.938 16ZM40.9712 16.5H38.9712C38.9712 17.0274 38.7406 17.6775 38.0248 18.4346C37.299 19.2022 36.1551 19.9844 34.5895 20.6848C31.463 22.0835 27.0035 23 21.9712 23V25V27C27.4323 27 32.4728 26.0137 36.223 24.336C38.0957 23.4982 39.7343 22.4488 40.9314 21.1826C42.1385 19.9059 42.9712 18.3198 42.9712 16.5H40.9712ZM21.9712 25V23C16.9389 23 12.4794 22.0835 9.35289 20.6848C7.7873 19.9844 6.6434 19.2022 5.9176 18.4346C5.2018 17.6775 4.97119 17.0274 4.97119 16.5H2.97119H0.971191C0.971191 18.3198 1.80391 19.9059 3.01101 21.1826C4.20812 22.4488 5.8467 23.4982 7.71943 24.336C11.4696 26.0137 16.5101 27 21.9712 27V25ZM2.97119 16.5H4.97119C4.97119 16.4255 4.97639 16.3451 4.98778 16.2572L3.00439 16L1.02101 15.7428C0.989477 15.9859 0.971191 16.2387 0.971191 16.5H2.97119ZM3.00439 16V14H2.97119V16V18H3.00439V16ZM2.97119 16L4.82412 16.7528L4.87491 16.6278L3.02197 15.875L1.16904 15.1222L1.11826 15.2472L2.97119 16ZM3.02197 15.875L4.99609 16.1957C5.04558 15.8911 5.17646 15.5474 5.43379 15.1646L3.77393 14.0488L2.11406 12.9331C1.58522 13.7199 1.2032 14.5981 1.04785 15.5543L3.02197 15.875ZM3.77393 14.0488L5.62323 14.8104L7.83808 9.43252L5.98877 8.6709L4.13946 7.90928L1.92462 13.2872L3.77393 14.0488ZM5.98877 8.6709L7.97767 8.88131C8.01077 8.5684 8.19985 8.09999 8.81813 7.5158C9.43736 6.93071 10.3895 6.32862 11.6808 5.78772C14.2598 4.70747 17.8845 4 21.9712 4V2V0C17.4735 0 13.3034 0.771384 10.1355 2.09829C8.55338 2.76097 7.144 3.59452 6.07101 4.60834C4.99707 5.62306 4.16318 6.9168 3.99987 8.46049L5.98877 8.6709Z" fill="#3EFE51" mask="url(#path-1-outside-1_738_307)"/>
</svg>
