<svg width="47" height="29" viewBox="0 0 47 29" fill="none" xmlns="http://www.w3.org/2000/svg">
<mask id="path-1-outside-1_738_168" maskUnits="userSpaceOnUse" x="-0.542969" y="0" width="48" height="29" fill="black">
<rect fill="white" x="-0.542969" width="48" height="29"/>
<path d="M23.457 3C32.0413 3 39.0455 5.95776 39.4385 9.6709L41.6533 15.0488C42.0465 15.6337 42.3028 16.2445 42.4053 16.875L42.457 17H42.4238C42.4453 17.1655 42.457 17.3321 42.457 17.5C42.457 22.1944 33.9504 26 23.457 26C12.9636 26 4.45703 22.1944 4.45703 17.5C4.45703 17.3321 4.46877 17.1655 4.49023 17H4.45703L4.50781 16.875C4.61023 16.2446 4.86668 15.6336 5.25977 15.0488L7.47461 9.6709C7.86744 5.95771 14.8726 3 23.457 3Z"/>
</mask>
<path d="M39.4385 9.6709L36.4551 9.98662L36.5005 10.415L36.6645 10.8133L39.4385 9.6709ZM41.6533 15.0488L38.8794 16.1913L38.9947 16.4713L39.1637 16.7227L41.6533 15.0488ZM42.4053 16.875L39.4441 17.3562L39.5001 17.7004L39.6335 18.0227L42.4053 16.875ZM42.457 17V20H46.9462L45.2288 15.8523L42.457 17ZM42.4238 17V14H39.0096L39.4487 17.3858L42.4238 17ZM4.49023 17L7.46532 17.3858L7.90443 14H4.49023V17ZM4.45703 17L1.67763 15.8709L0.000172138 20H4.45703V17ZM4.50781 16.875L7.28721 18.0041L7.41468 17.6904L7.46899 17.3561L4.50781 16.875ZM5.25977 15.0488L7.74956 16.7224L7.91844 16.4712L8.03373 16.1913L5.25977 15.0488ZM7.47461 9.6709L10.2486 10.8133L10.4126 10.415L10.458 9.98652L7.47461 9.6709ZM23.457 3V6C27.441 6 30.9289 6.6915 33.3604 7.71006C34.5789 8.2205 35.4166 8.76471 35.9223 9.24259C36.4266 9.71912 36.4546 9.98126 36.4551 9.98662L39.4385 9.6709L42.4218 9.35518C42.2259 7.50397 41.231 6.00396 40.0432 4.88159C38.8569 3.76057 37.3333 2.86913 35.6786 2.17599C32.3637 0.787377 28.0574 0 23.457 0V3ZM39.4385 9.6709L36.6645 10.8133L38.8794 16.1913L41.6533 15.0488L44.4273 13.9064L42.2124 8.52847L39.4385 9.6709ZM41.6533 15.0488L39.1637 16.7227C39.353 17.0042 39.421 17.214 39.4441 17.3562L42.4053 16.875L45.3664 16.3938C45.1846 15.2749 44.7401 14.2632 44.143 13.375L41.6533 15.0488ZM42.4053 16.875L39.6335 18.0227L39.6852 18.1477L42.457 17L45.2288 15.8523L45.1771 15.7273L42.4053 16.875ZM42.457 17V14H42.4238V17V20H42.457V17ZM42.4238 17L39.4487 17.3858C39.4551 17.4349 39.457 17.4722 39.457 17.5H42.457H45.457C45.457 17.192 45.4355 16.8961 45.3989 16.6142L42.4238 17ZM42.457 17.5H39.457C39.457 17.7042 39.3769 18.1204 38.784 18.7476C38.176 19.3906 37.1558 20.1059 35.667 20.772C32.6964 22.1009 28.3821 23 23.457 23V26V29C29.0254 29 34.2111 27.9963 38.1172 26.2489C40.0667 25.3767 41.8289 24.2604 43.1439 22.8696C44.4738 21.463 45.457 19.643 45.457 17.5H42.457ZM23.457 26V23C18.532 23 14.2177 22.1009 11.2471 20.772C9.75829 20.1059 8.73805 19.3906 8.13009 18.7476C7.53711 18.1204 7.45703 17.7042 7.45703 17.5H4.45703H1.45703C1.45703 19.643 2.44027 21.463 3.7702 22.8696C5.08514 24.2604 6.84739 25.3767 8.7969 26.2489C12.7029 27.9963 17.8887 29 23.457 29V26ZM4.45703 17.5H7.45703C7.45703 17.4722 7.45896 17.4349 7.46532 17.3858L4.49023 17L1.51515 16.6142C1.47859 16.8961 1.45703 17.192 1.45703 17.5H4.45703ZM4.49023 17V14H4.45703V17V20H4.49023V17ZM4.45703 17L7.23643 18.1291L7.28721 18.0041L4.50781 16.875L1.72841 15.7459L1.67763 15.8709L4.45703 17ZM4.50781 16.875L7.46899 17.3561C7.49201 17.2144 7.56012 17.0043 7.74956 16.7224L5.25977 15.0488L2.76997 13.3752C2.17324 14.263 1.72844 15.2748 1.54663 16.3939L4.50781 16.875ZM5.25977 15.0488L8.03373 16.1913L10.2486 10.8133L7.47461 9.6709L4.70065 8.52847L2.4858 13.9064L5.25977 15.0488ZM7.47461 9.6709L10.458 9.98652C10.4585 9.98131 10.4864 9.71922 10.9908 9.24266C11.4965 8.76476 12.3343 8.22053 13.553 7.71007C15.9848 6.69149 19.473 6 23.457 6V3V0C18.8566 0 14.5501 0.787361 11.235 2.17593C9.5802 2.86905 8.05649 3.76047 6.87006 4.88148C5.68221 6.00383 4.68712 7.5039 4.49126 9.35528L7.47461 9.6709Z" fill="#50E5FF" mask="url(#path-1-outside-1_738_168)"/>
</svg>
