<svg width="59" height="82" viewBox="0 0 59 82" fill="none" xmlns="http://www.w3.org/2000/svg">
<mask id="path-1-outside-1_738_211" maskUnits="userSpaceOnUse" x="-0.118652" y="0" width="59" height="82" fill="black">
<rect fill="white" x="-0.118652" width="59" height="82"/>
<path d="M47.8813 3.12988C50.1636 3.73212 51.8813 6.35534 51.8813 9.5C51.8813 12.6446 50.1635 15.2668 47.8813 15.8691V16H45.0952L47.6392 26.6865L54.2222 26.5381C54.9751 26.5212 55.4758 27.3107 55.1392 27.9844L29.8813 78.5L4.88135 77.0137L24.8159 40.1895L21.644 16H16.8813V15.6279C15.134 14.7353 13.8813 12.3297 13.8813 9.5C13.8813 6.67013 15.1338 4.26361 16.8813 3.37109V3H47.8813V3.12988Z"/>
</mask>
<path d="M47.8813 3.12988H44.8813V5.44094L47.1159 6.03059L47.8813 3.12988ZM47.8813 15.8691L47.1157 12.9685L44.8813 13.5582V15.8691H47.8813ZM47.8813 16V19H50.8813V16H47.8813ZM45.0952 16V13H41.2972L42.1768 16.6947L45.0952 16ZM47.6392 26.6865L44.7207 27.3813L45.2823 29.7404L47.7068 29.6858L47.6392 26.6865ZM54.2222 26.5381L54.1548 23.5388L54.1545 23.5388L54.2222 26.5381ZM55.1392 27.9844L57.8224 29.326L57.8228 29.3254L55.1392 27.9844ZM29.8813 78.5L29.7033 81.4947L31.6794 81.6122L32.5646 79.8416L29.8813 78.5ZM4.88135 77.0137L2.24312 75.5855L0.000171661 79.7288L4.7033 80.0084L4.88135 77.0137ZM24.8159 40.1895L27.4542 41.6176L27.9168 40.763L27.7905 39.7994L24.8159 40.1895ZM21.644 16L24.6186 15.61L24.2763 13H21.644V16ZM16.8813 16H13.8813V19H16.8813V16ZM16.8813 15.6279H19.8813V13.7917L18.2462 12.9564L16.8813 15.6279ZM16.8813 3.37109L18.2459 6.04281L19.8813 5.20752V3.37109H16.8813ZM16.8813 3V0H13.8813V3H16.8813ZM47.8813 3H50.8813V0H47.8813V3ZM47.8813 3.12988L47.1159 6.03059C47.6677 6.17618 48.8813 7.23654 48.8813 9.5H51.8813H54.8813C54.8813 5.47413 52.6596 1.28805 48.6468 0.229173L47.8813 3.12988ZM51.8813 9.5H48.8813C48.8813 11.7626 47.6681 12.8227 47.1157 12.9685L47.8813 15.8691L48.647 18.7698C52.6589 17.7109 54.8813 13.5265 54.8813 9.5H51.8813ZM47.8813 15.8691H44.8813V16H47.8813H50.8813V15.8691H47.8813ZM47.8813 16V13H45.0952V16V19H47.8813V16ZM45.0952 16L42.1768 16.6947L44.7207 27.3813L47.6392 26.6865L50.5576 25.9918L48.0137 15.3053L45.0952 16ZM47.6392 26.6865L47.7068 29.6858L54.2898 29.5373L54.2222 26.5381L54.1545 23.5388L47.5715 23.6873L47.6392 26.6865ZM54.2222 26.5381L54.2896 29.5373C52.785 29.5711 51.7817 27.992 52.4555 26.6434L55.1392 27.9844L57.8228 29.3254C59.1699 26.6294 57.1652 23.4712 54.1548 23.5388L54.2222 26.5381ZM55.1392 27.9844L52.4559 26.6427L27.1981 77.1584L29.8813 78.5L32.5646 79.8416L57.8224 29.326L55.1392 27.9844ZM29.8813 78.5L30.0594 75.5053L5.05939 74.019L4.88135 77.0137L4.7033 80.0084L29.7033 81.4947L29.8813 78.5ZM4.88135 77.0137L7.51958 78.4419L27.4542 41.6176L24.8159 40.1895L22.1777 38.7613L2.24312 75.5855L4.88135 77.0137ZM24.8159 40.1895L27.7905 39.7994L24.6186 15.61L21.644 16L18.6695 16.39L21.8414 40.5795L24.8159 40.1895ZM21.644 16V13H16.8813V16V19H21.644V16ZM16.8813 16H19.8813V15.6279H16.8813H13.8813V16H16.8813ZM16.8813 15.6279L18.2462 12.9564C17.8392 12.7485 16.8813 11.6387 16.8813 9.5H13.8813H10.8813C10.8813 13.0206 12.4288 16.722 15.5165 18.2995L16.8813 15.6279ZM13.8813 9.5H16.8813C16.8813 7.36029 17.8395 6.25036 18.2459 6.04281L16.8813 3.37109L15.5168 0.699378C12.4281 2.27686 10.8813 5.97997 10.8813 9.5H13.8813ZM16.8813 3.37109H19.8813V3H16.8813H13.8813V3.37109H16.8813ZM16.8813 3V6H47.8813V3V0H16.8813V3ZM47.8813 3H44.8813V3.12988H47.8813H50.8813V3H47.8813Z" fill="#FE4BB4" mask="url(#path-1-outside-1_738_211)"/>
</svg>
